<svg id="fe432b33-0ce2-4da4-a36e-d7964c768f92" data-name="Layer 1" xmlns="http://www.w3.org/2000/svg" xmlns:xlink="http://www.w3.org/1999/xlink" width="728.50873" height="433.50708" viewBox="0 0 728.50873 433.50708"><defs><linearGradient id="a91ebf20-548b-4a4f-8023-1f25a643fefc" x1="769.0156" y1="131.45539" x2="769.0156" y2="433.30829" gradientTransform="matrix(1, 0, 0, -1, -145, 749.22)" gradientUnits="userSpaceOnUse"><stop offset="0" stop-color="gray" stop-opacity="0.25"/><stop offset="0.54" stop-color="gray" stop-opacity="0.12"/><stop offset="1" stop-color="gray" stop-opacity="0.1"/></linearGradient></defs><title>Through the desert</title><path d="M492.83451,565.52646c9.28-.7,18.55,1,27.41,2.87,53.2,11,107.62,26.72,163,20.87,29.39-3.11,57-12.23,86.78-12.73,50.46-.86,96.43,23,146.64,19.84,10.26-.65,22.79-1.89,29,3.15,7.2,5.88-.63,16.06,8.6,20.77,2.75,1.4,6.63,2,8.68,3.78,3.16,2.76.12,6.66-4,8.9-25,13.52-67-6.55-96.88,2.57-6.63,2-12,5.34-18.37,7.61-9.07,3.22-19.76,4.17-30.15,5.06l-159,13.65985c-38.07,3.27-76.63,6.54-114.84,3.93s-76.66-11.78-101.64-29.65c-5.37-3.84-10.18-8.21-11.57-13.19C419.94453,599.47647,453.29453,568.52646,492.83451,565.52646Z" transform="translate(-235.74564 -233.24646)" fill="#252223" opacity="0.1" style="isolation:isolate"/><path d="M768.67454,485.57645v-19.71c-25.58-28.78,5.76-39.65,5.76-39.65v21.1c74.83-7,65.23,23,65.23,23,8.53,1.11,11.25,7.17,12,12.07a5.38,5.38,0,0,1-5.61,6.18l-21.64-1.04a9.19,9.19,0,0,0-9.648,8.708q-.01263.24582-.012.492l.29,88.69a43.68,43.68,0,0,1-15.27,33.46c-7.51,6.33-18.55,11.25-34.61,10.77h-168.84s-50.2,36.73-69.07-9.63c0,0-62.68-102.33,21.1-132.39,0,0,31.34-13.43,66.51,15.35,0,0,15.35,14.71,28.78-30.06,11.19-37.31,22.38-39.08,25.8-38.64.89.12,1.78.21,2.68.25,7.41.31,37.86,5.82,41.23,74.84,0,0,4.48,53.08,32,41.57,25.74-10.78,24-56.86,23.7-62.71a6.17259,6.17259,0,0,0-.17-1.16h0A6.14022,6.14022,0,0,1,768.67454,485.57645Z" transform="translate(-235.74564 -233.24646)" fill="#535461"/><circle cx="545.40888" cy="216.64" r="13.43" fill="#535461"/><path d="M709.1345,526.02646c19.64-20.3,10.84-23.58,6.09-30.78-3.24-4.92-36.75-12.88-57.7-17.45-.13-1.7-.35-4.56-.55-8,0,0-.53-6.44-.49-10.86v-.11l1.34.18v-1.3l26.22,3.52c22.35,3.27,25.06-5.24,25.06-5.24,3.39-15.06-24.38-5.24-24.38-5.24-5.44,1.5-18.24-2.82-28.16-6.77a57.52735,57.52735,0,0,1,.74-6.65,50.00162,50.00162,0,0,0,1.24-10.16,16.54039,16.54039,0,0,0-1.79-8.48c-5-9.5-13.59-20.62-21.66-28.83a45.84073,45.84073,0,0,1,4.78-16.73,21.05,21.05,0,0,0,15.06-20,20.31885,20.31885,0,0,0-.93-6.09c5.81-5.3,5.62-16.23.28-23.25a15.60931,15.60931,0,0,0-1.9-2.06,20.77,20.77,0,0,0-13.6-5.77c-5.69-.33-11.35,1.2-16.59,3.39-6.17,2.59-12.35,6.21-19.06,5.68-4.83-.38-9.45-2.92-14.25-2.32-6.24.78-10.42,6.48-13.38,11.85s-6,11.38-11.73,13.85c-5,2.14-10.75,1-16.21,1.31-7.63.41-15.36,4.13-19,10.63-3.25,5.83-2.26,13.86,2.65,18.27a12.17092,12.17092,0,0,0,2.52,2,24.34256,24.34256,0,0,1,2.88,1.84,2.75,2.75,0,0,1,.75,2,5.85005,5.85005,0,0,1-1,2.46,14,14,0,0,0-1.1401,11.11,7.15017,7.15017,0,0,0,2.16,3.44,4.99982,4.99982,0,0,0,1,.87c3.47,2.38,8.89-.48,12.34,1.92l.26.2c1.39,1.61,1.82,4,2.78,5.92a10.99952,10.99952,0,0,0,2.57,3.32,16.18987,16.18987,0,0,0,10.73,4.52c5.12.27,10.14-1.28,15-2.95,6.37-2.19,13.48-5.47,15.14-11.81,1-3.86-.31-8.07.91-11.87a10.87,10.87,0,0,1,3.14-4.7,40.35039,40.35039,0,0,0-2.58,9.86,53.9977,53.9977,0,0,0-.55,8.26,58.41022,58.41022,0,0,0,3.69,21.09c2.62,7.1,5.7,17.52,5.84,27.55a35.44032,35.44032,0,0,1-2.08,12.1c-4.26,11.23-5,16.25-4.81,18.5-.17,2.93.74,3.12.74,3.12l.26-.1a14.81,14.81,0,0,0,3.07995,11.26c27.09,17.68,90.07,11.79,90.07,11.79-12.87,2-27.76,33.4-27.76,33.4a47.12047,47.12047,0,0,1-12.5,18.13v-.12c-6.43-2.2-15.36,3.63-21.95,6.8l-.54.25a4.85994,4.85994,0,0,0-2.18,7l18.24,29.5c11.47,11.89,19,13.94,21.62,11.68,1.73-1.47,1.37-4.79-1.3-8.41-6.49-8.78-.86-32.27-.38-34.24C673.74455,567.07645,692.6345,543.08646,709.1345,526.02646Z" transform="translate(-235.74564 -233.24646)" fill="url(#a91ebf20-548b-4a4f-8023-1f25a643fefc)"/><path d="M642.36454,370.57645s-9.59,14.07-7.67,28.14l-22.38-17.91s8.31-.64,10.23-19.83Z" transform="translate(-235.74564 -233.24646)" fill="#f9d5c6"/><path d="M639.81455,475.46646s65.87,13.43,70.35,20.47,12.79,10.23-5.76,30.06-40.29,49.24-40.29,49.24l-15.35-10.87a45.36,45.36,0,0,0,16-21.1s14.07-30.7,26.22-32.62c0,0-59.48,5.76-85.06-11.51,0,0-6.4-7-.64-18.55S639.81455,475.46646,639.81455,475.46646Z" transform="translate(-235.74564 -233.24646)" fill="#353535"/><path d="M619.34452,382.72647s-15.71-7.18-19.3,18.32a57.62014,57.62014,0,0,0,3,27.38c3.63,10.17,8.2,27.32,3.55,40-7,19.19-3.84,19.83-3.84,19.83l9.4-3.55a74.37989,74.37989,0,0,1,39.76-3.57l3.92.72s-2.56-29.93-.32-42.53c1.06-6,2.23-11.5-.52-16.91C646.53452,405.84647,627.22453,384.20645,619.34452,382.72647Z" transform="translate(-235.74564 -233.24646)" opacity="0.1" style="isolation:isolate"/><path d="M619.34452,381.45645s-15.71-7.18-19.3,18.32a57.62014,57.62014,0,0,0,3,27.38c3.63,10.17,8.2,27.32,3.55,40-7,19.19-3.84,19.83-3.84,19.83l9.4-3.55a74.37979,74.37979,0,0,1,39.76-3.57l3.92.72s-2.56-29.93-.32-42.53c1.06-6,2.23-11.5-.52-16.91C646.53452,404.52646,627.22453,382.92645,619.34452,381.45645Z" transform="translate(-235.74564 -233.24646)" fill="#409cd6"/><path d="M609.37455,400.59647c4.32-7.74,15.43-8,20.45-.7a30.24,30.24,0,0,1,4.23,10.33c4.48,19.19,8.31,31.34,8.31,31.34s9.91,3.52,14.17,6.25c-.42,6.22-.6,12.69-.6,12.69l-21.24-3-22.38-39.65S604.76451,408.85645,609.37455,400.59647Z" transform="translate(-235.74564 -233.24646)" opacity="0.1" style="isolation:isolate"/><path d="M609.37455,399.31647c4.32-7.74,15.43-8,20.45-.7a30.23988,30.23988,0,0,1,4.23,10.33c4.48,19.19,8.31,31.34,8.31,31.34s30.06,14.71,39,12.15c0,0,26.22-9.59,23,5.12,0,0-2.56,8.31-23.66,5.12l-46-6.4-22.39-39.65S604.76451,407.57645,609.37455,399.31647Z" transform="translate(-235.74564 -233.24646)" fill="#f9d5c6"/><path d="M619.02451,368.97647c1.19-2.84,2.35-1.43,2.88-6.72l19.83,9.59a48.871,48.871,0,0,0-3.35,6.06c-2,.63-4.38,0-6.56,0C626.89451,377.93646,622.55454,371.87647,619.02451,368.97647Z" transform="translate(-235.74564 -233.24646)" opacity="0.1" style="isolation:isolate"/><circle cx="397.02888" cy="123.89999" r="20.47" fill="#f9d5c6"/><path d="M641.87455,354.06647c-3.59-.48-7.28-2.34-10.67-1.05-3.89,1.48-5.23,6.32-5.21,10.48s.82,8.53-.9,12.32c-2.26,5-8,7.21-13.14,9.11s-10.82,4.57-12.45,9.8c-1.16,3.72.09,7.82-.86,11.59-1.57,6.2-8.28,9.39-14.3,11.54-4.56,1.62-9.3,3.14-14.13,2.88s-9.84-2.65-11.92-7c-1.09-2.29-1.45-5.14-3.51-6.62-3.26-2.35-8.38.45-11.65-1.88a6.71987,6.71987,0,0,1-2.3-3.57,13.99992,13.99992,0,0,1,1.07-10.84,5.81994,5.81994,0,0,0,1-2.41c.1-2.1-2.29-3.26-4.07-4.37-6.13-3.81-7.67-12.84-4.24-19.19s10.73-10,17.93-10.38c5.15-.29,10.59.81,15.31-1.28,5.43-2.41,8.28-8.27,11.07-13.52s6.74-10.81,12.64-11.57c4.54-.59,8.9,1.9,13.46,2.27,6.33.51,12.17-3,18-5.55,4.94-2.14,10.29-3.64,15.66-3.31s10.8,2.67,14,7C659.87455,338.34647,657.09452,356.09647,641.87455,354.06647Z" transform="translate(-235.74564 -233.24646)" opacity="0.1" style="isolation:isolate"/><path d="M641.22453,353.42645c-3.59-.48-7.28-2.34-10.67-1.05-3.89,1.48-5.23,6.32-5.21,10.48s.82,8.53-.9,12.32c-2.26,5-8,7.21-13.14,9.11s-10.82,4.57-12.45,9.8c-1.16,3.72.09,7.82-.86,11.59-1.57,6.2-8.28,9.39-14.3,11.54-4.56,1.62-9.3,3.14-14.13,2.88s-9.84-2.65-11.92-7c-1.09-2.29-1.45-5.14-3.51-6.62-3.26-2.35-8.38.45-11.65-1.88a6.71979,6.71979,0,0,1-2.3-3.57,14,14,0,0,1,1.04-10.85,5.8199,5.8199,0,0,0,1-2.41c.1-2.1-2.29-3.26-4.07-4.37-6.13-3.81-7.67-12.84-4.24-19.19s10.73-10,17.93-10.38c5.15-.29,10.59.81,15.31-1.28,5.43-2.41,8.28-8.27,11.07-13.52s6.74-10.81,12.64-11.57c4.54-.59,8.9,1.9,13.46,2.27,6.33.51,12.17-3,18-5.55,4.94-2.14,10.29-3.64,15.66-3.31s10.8,2.67,14,7C659.22453,337.70645,656.45451,355.45645,641.22453,353.42645Z" transform="translate(-235.74564 -233.24646)" fill="#2f302f"/><path d="M637.5745,405.43646s-26.22-3.2-27.5,15.35-5.12-22.38-5.12-22.38l12.15-9,14.12,4.52Z" transform="translate(-235.74564 -233.24646)" opacity="0.1" style="isolation:isolate"/><path d="M636.93455,404.79645s-26.22-3.2-27.5,15.35-5.12-22.38-5.12-22.38l12.15-9,14.07,4.48Z" transform="translate(-235.74564 -233.24646)" fill="#409cd6"/><path d="M629.65452,574.52646l17.19,28.84c10.83,11.61,17.93,13.62,20.41,11.41,1.63-1.44,1.3-4.68-1.23-8.21-6.4-9-.32-33.58-.32-33.58-11.51-2.56-12.79-12.15-12.79-12.15-6-2.14-14.47,3.55-20.7,6.62l-.51.24a4.83,4.83,0,0,0-2.256,6.44736Q629.54282,574.33964,629.65452,574.52646Z" transform="translate(-235.74564 -233.24646)" fill="#409cd6"/><path d="M665.71452,572.99646s-12.79-.64-12.79-12.15C652.92454,560.84647,654.84452,571.07645,665.71452,572.99646Z" transform="translate(-235.74564 -233.24646)" opacity="0.1" style="isolation:isolate"/><path d="M629.65452,574.52646l17.19,28.84c10.83,11.61,17.93,13.62,20.41,11.41-5.94-3.14-22.27-14.37-35-47.32l-.51.24a4.83,4.83,0,0,0-2.302,6.43109Q629.53914,574.33183,629.65452,574.52646Z" transform="translate(-235.74564 -233.24646)" opacity="0.1" style="isolation:isolate"/><path d="M254.06452,532.14645s-67.63,40.8,57,103.62c0,0,27.46-51-2.9-92.57a40.94,40.94,0,0,0-53.08-11.67Z" transform="translate(-235.74564 -233.24646)" fill="#b40404"/><path d="M254.84452,531.28647s57.88,44.24,56.25,104.48" transform="translate(-235.74564 -233.24646)" fill="none" stroke="#535461" stroke-miterlimit="10"/><path d="M307.37452,635.52646s-21.19-72,4-124.91a113.64987,113.64987,0,0,0,9.19-71.3,191.12936,191.12936,0,0,0-10.09-33.46" transform="translate(-235.74564 -233.24646)" fill="none" stroke="#535461" stroke-miterlimit="10" stroke-width="2"/><path d="M326.10453,372.36646c0,8.82-16,34.39-16,34.39s-16-25.57-16-34.39a16,16,0,1,1,31.93,0Z" transform="translate(-235.74564 -233.24646)" fill="#b40404"/><path d="M352.49452,421.21646c-4.79,7.4-32.09,20.19-32.09,20.19s.5-30.14,5.29-37.54a16,16,0,1,1,26.8,17.36Z" transform="translate(-235.74564 -233.24646)" fill="#b40404"/><path d="M351.34452,504.68643c-7.87,4-37.89,1.23-37.89,1.23s15.64-25.77,23.52-29.74a16,16,0,0,1,14.38,28.51Z" transform="translate(-235.74564 -233.24646)" fill="#b40404"/><path d="M336.22453,567.63644c-7.09,5.24-37.14,7.61-37.14,7.61s11.06-28,18.15-33.29a16,16,0,1,1,19,25.67Z" transform="translate(-235.74564 -233.24646)" fill="#b40404"/><path d="M286.87452,443.10648c6.32,6.14,35.79,12.51,35.79,12.51s-7.22-29.27-13.54-35.41a16,16,0,1,0-22.25,22.9Z" transform="translate(-235.74564 -233.24646)" fill="#b40404"/><path d="M270.16453,516.96646c7.87,4,37.89,1.23,37.89,1.23s-15.64-25.77-23.52-29.74a16,16,0,1,0-14.38,28.51Z" transform="translate(-235.74564 -233.24646)" fill="#b40404"/><path d="M263.76452,590.97647c7.09,5.24,37.14,7.61,37.14,7.61s-11.06-28-18.15-33.29a16,16,0,1,0-19,25.67Z" transform="translate(-235.74564 -233.24646)" fill="#b40404"/><path d="M326.10453,372.36646c0,8.82-16,34.39-16,34.39s-16-25.57-16-34.39a16,16,0,1,1,31.93,0Z" transform="translate(-235.74564 -233.24646)" opacity="0.25" style="isolation:isolate"/><path d="M352.49452,421.21646c-4.79,7.4-32.09,20.19-32.09,20.19s.5-30.14,5.29-37.54a16,16,0,1,1,26.8,17.36Z" transform="translate(-235.74564 -233.24646)" opacity="0.25" style="isolation:isolate"/><path d="M351.34452,504.68643c-7.87,4-37.89,1.23-37.89,1.23s15.64-25.77,23.52-29.74a16,16,0,0,1,14.38,28.51Z" transform="translate(-235.74564 -233.24646)" opacity="0.25" style="isolation:isolate"/><path d="M336.22453,567.63644c-7.09,5.24-37.14,7.61-37.14,7.61s11.06-28,18.15-33.29a16,16,0,1,1,19,25.67Z" transform="translate(-235.74564 -233.24646)" opacity="0.25" style="isolation:isolate"/><path d="M286.87452,443.10648c6.32,6.14,35.79,12.51,35.79,12.51s-7.22-29.27-13.54-35.41a16,16,0,1,0-22.25,22.9Z" transform="translate(-235.74564 -233.24646)" opacity="0.25" style="isolation:isolate"/><path d="M270.16453,516.96646c7.87,4,37.89,1.23,37.89,1.23s-15.64-25.77-23.52-29.74a16,16,0,1,0-14.38,28.51Z" transform="translate(-235.74564 -233.24646)" opacity="0.25" style="isolation:isolate"/><path d="M263.76452,590.97647c7.09,5.24,37.14,7.61,37.14,7.61s-11.06-28-18.15-33.29a16,16,0,1,0-19,25.67Z" transform="translate(-235.74564 -233.24646)" opacity="0.25" style="isolation:isolate"/><path d="M368.41453,659.87643s-21.19-72,4-124.91a113.64991,113.64991,0,0,0,9.19-71.3,191.13116,191.13116,0,0,0-10.09-33.46" transform="translate(-235.74564 -233.24646)" fill="none" stroke="#535461" stroke-miterlimit="10" stroke-width="2"/><path d="M387.14454,396.73645c0,8.82-16,34.39-16,34.39s-15.92-25.6-15.92-34.39a16,16,0,0,1,31.93,0Z" transform="translate(-235.74564 -233.24646)" fill="#b40404"/><path d="M413.53452,445.58646c-4.79,7.4-32.09,20.19-32.09,20.19s.5-30.14,5.29-37.54a16,16,0,1,1,26.8,17.36Z" transform="translate(-235.74564 -233.24646)" fill="#b40404"/><path d="M412.38453,529.05649c-7.87,4-37.89,1.23-37.89,1.23s15.63-25.76,23.51-29.76a16,16,0,1,1,14.38,28.51Z" transform="translate(-235.74564 -233.24646)" fill="#b40404"/><path d="M397.28452,592.00644c-7.09,5.24-37.14,7.61-37.14,7.61s11.06-28,18.15-33.29a16,16,0,0,1,19,25.67Z" transform="translate(-235.74564 -233.24646)" fill="#b40404"/><path d="M347.91453,467.52646c6.32,6.14,35.79,12.51,35.79,12.51s-7.22-29.27-13.54-35.41a16,16,0,0,0-22.25,22.9Z" transform="translate(-235.74564 -233.24646)" fill="#b40404"/><path d="M331.22453,541.33646c7.87,4,37.89,1.23,37.89,1.23s-15.64-25.77-23.52-29.74a16,16,0,1,0-14.37,28.51Z" transform="translate(-235.74564 -233.24646)" fill="#b40404"/><path d="M324.79453,615.34647c7.09,5.24,37.14,7.61,37.14,7.61s-11.06-28-18.15-33.29a16,16,0,1,0-19,25.67Z" transform="translate(-235.74564 -233.24646)" fill="#b40404"/><path d="M603.72453,241.52646h-5.91a4.14,4.14,0,0,0,0-8.28h-47.88a4.14,4.14,0,0,0,0,8.28h5.91a4.14,4.14,0,0,0,0,8.28h-8.28a4.14,4.14,0,0,0,0,8.28h47.88a4.14,4.14,0,0,0,.004-8.28h8.27606a4.14,4.14,0,0,0,.004-8.28Z" transform="translate(-235.74564 -233.24646)" fill="#252223" opacity="0.1" style="isolation:isolate"/><path d="M504.93452,305.12647h-5.91a4.14,4.14,0,0,0,0-8.28h-47.87a4.14,4.14,0,0,0,0,8.28h5.91a4.14,4.14,0,0,0,0,8.28h-8.28a4.14,4.14,0,0,0-.00393,8.28h47.88394a4.14,4.14,0,0,0,.00394-8.28h8.27606a4.14,4.14,0,0,0,0-8.28Z" transform="translate(-235.74564 -233.24646)" fill="#252223" opacity="0.1" style="isolation:isolate"/><path d="M866.15452,351.10646h-5.93a4.14,4.14,0,0,0,.004-8.28H812.37455a4.14,4.14,0,0,0-.004,8.28h5.91394a4.14,4.14,0,0,0-.004,8.28H810.0045a4.14,4.14,0,0,0-.004,8.28h47.884a4.14,4.14,0,0,0,.004-8.28h8.27606a4.14,4.14,0,0,0,0-8.28Z" transform="translate(-235.74564 -233.24646)" fill="#252223" opacity="0.1" style="isolation:isolate"/><circle cx="124.7189" cy="44.02" r="43.81" fill="#b40404" opacity="0.3" style="isolation:isolate"/><path d="M568.22453,560.71646s18,23.19,24.91,42.09,2.58,24.05,2.58,24.05" transform="translate(-235.74564 -233.24646)" opacity="0.05" style="isolation:isolate"/></svg>